<?xml version="1.0" encoding="UTF-8"?><svg id="light" xmlns="http://www.w3.org/2000/svg" xmlns:xlink="http://www.w3.org/1999/xlink" viewBox="0 0 32 32"><defs><clipPath id="clippath"><path d="M5.82,15.98c0-2.55.95-4.89,2.51-6.67l14.24,14.24c-1.78,1.57-4.11,2.51-6.67,2.51-5.57,0-10.09-4.52-10.09-10.09Z" style="fill:none;"/></clipPath><radialGradient id="radial-gradient" cx="14.2" cy="17.69" fx="14.2" fy="17.69" r="8.38" gradientUnits="userSpaceOnUse"><stop offset="0" stop-color="#fffcf2"/><stop offset="1" stop-color="#fff"/></radialGradient><clipPath id="clippath-1"><path d="M26.01,15.98c0,2.55-.95,4.89-2.51,6.67l-14.24-14.24c1.78-1.57,4.11-2.51,6.67-2.51,5.57,0,10.09,4.52,10.09,10.09Z" style="fill:none;"/></clipPath></defs><g id="base"><g style="clip-path:url(#clippath);"><line x1="34.59" y1="31.8" x2="-2.76" y2="31.8" style="fill:none; stroke:#ededed; stroke-miterlimit:10; stroke-width:.07px;"/><line x1="34.59" y1="30.37" x2="-2.76" y2="30.37" style="fill:none; stroke:#ededed; stroke-miterlimit:10; stroke-width:.07px;"/><line x1="34.59" y1="28.94" x2="-2.76" y2="28.94" style="fill:none; stroke:#ededed; stroke-miterlimit:10; stroke-width:.07px;"/><line x1="34.59" y1="27.52" x2="-2.76" y2="27.52" style="fill:none; stroke:#ededed; stroke-miterlimit:10; stroke-width:.07px;"/><line x1="34.59" y1="26.09" x2="-2.76" y2="26.09" style="fill:none; stroke:#ededed; stroke-miterlimit:10; stroke-width:.07px;"/><line x1="34.59" y1="24.66" x2="-2.76" y2="24.66" style="fill:none; stroke:#ededed; stroke-miterlimit:10; stroke-width:.07px;"/><line x1="34.59" y1="23.23" x2="-2.76" y2="23.23" style="fill:none; stroke:#ededed; stroke-miterlimit:10; stroke-width:.07px;"/><line x1="34.59" y1="21.81" x2="-2.76" y2="21.81" style="fill:none; stroke:#ededed; stroke-miterlimit:10; stroke-width:.07px;"/><line x1="34.59" y1="20.38" x2="-2.76" y2="20.38" style="fill:none; stroke:#ededed; stroke-miterlimit:10; stroke-width:.07px;"/><line x1="34.59" y1="18.95" x2="-2.76" y2="18.95" style="fill:none; stroke:#ededed; stroke-miterlimit:10; stroke-width:.07px;"/><line x1="34.59" y1="17.52" x2="-2.76" y2="17.52" style="fill:none; stroke:#ededed; stroke-miterlimit:10; stroke-width:.07px;"/><line x1="34.59" y1="16.1" x2="-2.76" y2="16.1" style="fill:none; stroke:#ededed; stroke-miterlimit:10; stroke-width:.07px;"/><line x1="34.59" y1="14.67" x2="-2.76" y2="14.67" style="fill:none; stroke:#ededed; stroke-miterlimit:10; stroke-width:.07px;"/><line x1="34.59" y1="13.24" x2="-2.76" y2="13.24" style="fill:none; stroke:#ededed; stroke-miterlimit:10; stroke-width:.07px;"/><line x1="34.59" y1="11.81" x2="-2.76" y2="11.81" style="fill:none; stroke:#ededed; stroke-miterlimit:10; stroke-width:.07px;"/><line x1="34.59" y1="10.39" x2="-2.76" y2="10.39" style="fill:none; stroke:#ededed; stroke-miterlimit:10; stroke-width:.07px;"/><line x1="34.59" y1="8.96" x2="-2.76" y2="8.96" style="fill:none; stroke:#ededed; stroke-miterlimit:10; stroke-width:.07px;"/><line x1="34.59" y1="7.53" x2="-2.76" y2="7.53" style="fill:none; stroke:#ededed; stroke-miterlimit:10; stroke-width:.07px;"/><line x1="34.59" y1="6.1" x2="-2.76" y2="6.1" style="fill:none; stroke:#ededed; stroke-miterlimit:10; stroke-width:.07px;"/><line x1="34.59" y1="4.68" x2="-2.76" y2="4.68" style="fill:none; stroke:#ededed; stroke-miterlimit:10; stroke-width:.07px;"/><line x1="34.59" y1="3.25" x2="-2.76" y2="3.25" style="fill:none; stroke:#ededed; stroke-miterlimit:10; stroke-width:.07px;"/><line x1="34.59" y1="1.82" x2="-2.76" y2="1.82" style="fill:none; stroke:#ededed; stroke-miterlimit:10; stroke-width:.07px;"/><line x1="34.59" y1=".4" x2="-2.76" y2=".4" style="fill:none; stroke:#ededed; stroke-miterlimit:10; stroke-width:.07px;"/><line x1="31.73" y1="34.65" x2="31.73" y2="-2.7" style="fill:none; stroke:#ededed; stroke-miterlimit:10; stroke-width:.07px;"/><line x1="30.31" y1="34.65" x2="30.31" y2="-2.7" style="fill:none; stroke:#ededed; stroke-miterlimit:10; stroke-width:.07px;"/><line x1="28.88" y1="34.65" x2="28.88" y2="-2.7" style="fill:none; stroke:#ededed; stroke-miterlimit:10; stroke-width:.07px;"/><line x1="27.45" y1="34.65" x2="27.45" y2="-2.7" style="fill:none; stroke:#ededed; stroke-miterlimit:10; stroke-width:.07px;"/><line x1="26.03" y1="34.65" x2="26.03" y2="-2.7" style="fill:none; stroke:#ededed; stroke-miterlimit:10; stroke-width:.07px;"/><line x1="24.6" y1="34.65" x2="24.6" y2="-2.7" style="fill:none; stroke:#ededed; stroke-miterlimit:10; stroke-width:.07px;"/><line x1="23.17" y1="34.65" x2="23.17" y2="-2.7" style="fill:none; stroke:#ededed; stroke-miterlimit:10; stroke-width:.07px;"/><line x1="21.74" y1="34.65" x2="21.74" y2="-2.7" style="fill:none; stroke:#ededed; stroke-miterlimit:10; stroke-width:.07px;"/><line x1="20.32" y1="34.65" x2="20.32" y2="-2.7" style="fill:none; stroke:#ededed; stroke-miterlimit:10; stroke-width:.07px;"/><line x1="18.89" y1="34.65" x2="18.89" y2="-2.7" style="fill:none; stroke:#ededed; stroke-miterlimit:10; stroke-width:.07px;"/><line x1="17.46" y1="34.65" x2="17.46" y2="-2.7" style="fill:none; stroke:#ededed; stroke-miterlimit:10; stroke-width:.07px;"/><line x1="16.03" y1="34.65" x2="16.03" y2="-2.7" style="fill:none; stroke:#ededed; stroke-miterlimit:10; stroke-width:.07px;"/><line x1="14.61" y1="34.65" x2="14.61" y2="-2.7" style="fill:none; stroke:#ededed; stroke-miterlimit:10; stroke-width:.07px;"/><line x1="13.18" y1="34.65" x2="13.18" y2="-2.7" style="fill:none; stroke:#ededed; stroke-miterlimit:10; stroke-width:.07px;"/><line x1="11.75" y1="34.65" x2="11.75" y2="-2.7" style="fill:none; stroke:#ededed; stroke-miterlimit:10; stroke-width:.07px;"/><line x1="10.32" y1="34.65" x2="10.32" y2="-2.7" style="fill:none; stroke:#ededed; stroke-miterlimit:10; stroke-width:.07px;"/><line x1="8.9" y1="34.65" x2="8.9" y2="-2.7" style="fill:none; stroke:#ededed; stroke-miterlimit:10; stroke-width:.07px;"/><line x1="7.47" y1="34.65" x2="7.47" y2="-2.7" style="fill:none; stroke:#ededed; stroke-miterlimit:10; stroke-width:.07px;"/><line x1="6.04" y1="34.65" x2="6.04" y2="-2.7" style="fill:none; stroke:#ededed; stroke-miterlimit:10; stroke-width:.07px;"/><line x1="4.61" y1="34.65" x2="4.61" y2="-2.7" style="fill:none; stroke:#ededed; stroke-miterlimit:10; stroke-width:.07px;"/><line x1="3.19" y1="34.65" x2="3.19" y2="-2.7" style="fill:none; stroke:#ededed; stroke-miterlimit:10; stroke-width:.07px;"/><line x1="1.76" y1="34.65" x2="1.76" y2="-2.7" style="fill:none; stroke:#ededed; stroke-miterlimit:10; stroke-width:.07px;"/><line x1=".33" y1="34.65" x2=".33" y2="-2.7" style="fill:none; stroke:#ededed; stroke-miterlimit:10; stroke-width:.07px;"/></g><path d="M8.33,9.31l14.24,14.24c-1.78,1.57-4.11,2.51-6.67,2.51-5.57,0-10.09-4.52-10.09-10.09,0-2.55.95-4.89,2.51-6.67Z" style="fill:url(#radial-gradient); opacity:.9;"/><g style="clip-path:url(#clippath-1);"><line x1="-2.76" y1=".15" x2="34.59" y2=".15" style="fill:none; stroke:#ededed; stroke-miterlimit:10; stroke-width:.07px;"/><line x1="-2.76" y1="1.58" x2="34.59" y2="1.58" style="fill:none; stroke:#ededed; stroke-miterlimit:10; stroke-width:.07px;"/><line x1="-2.76" y1="3.01" x2="34.59" y2="3.01" style="fill:none; stroke:#ededed; stroke-miterlimit:10; stroke-width:.07px;"/><line x1="-2.76" y1="4.44" x2="34.59" y2="4.44" style="fill:none; stroke:#ededed; stroke-miterlimit:10; stroke-width:.07px;"/><line x1="-2.76" y1="5.86" x2="34.59" y2="5.86" style="fill:none; stroke:#ededed; stroke-miterlimit:10; stroke-width:.07px;"/><line x1="-2.76" y1="7.29" x2="34.59" y2="7.29" style="fill:none; stroke:#ededed; stroke-miterlimit:10; stroke-width:.07px;"/><line x1="-2.76" y1="8.72" x2="34.59" y2="8.72" style="fill:none; stroke:#ededed; stroke-miterlimit:10; stroke-width:.07px;"/><line x1="-2.76" y1="10.15" x2="34.59" y2="10.15" style="fill:none; stroke:#ededed; stroke-miterlimit:10; stroke-width:.07px;"/><line x1="-2.76" y1="11.57" x2="34.59" y2="11.57" style="fill:none; stroke:#ededed; stroke-miterlimit:10; stroke-width:.07px;"/><line x1="-2.76" y1="13" x2="34.59" y2="13" style="fill:none; stroke:#ededed; stroke-miterlimit:10; stroke-width:.07px;"/><line x1="-2.76" y1="14.43" x2="34.59" y2="14.43" style="fill:none; stroke:#ededed; stroke-miterlimit:10; stroke-width:.07px;"/><line x1="-2.76" y1="15.86" x2="34.59" y2="15.86" style="fill:none; stroke:#ededed; stroke-miterlimit:10; stroke-width:.07px;"/><line x1="-2.76" y1="17.28" x2="34.59" y2="17.28" style="fill:none; stroke:#ededed; stroke-miterlimit:10; stroke-width:.07px;"/><line x1="-2.76" y1="18.71" x2="34.59" y2="18.71" style="fill:none; stroke:#ededed; stroke-miterlimit:10; stroke-width:.07px;"/><line x1="-2.76" y1="20.14" x2="34.59" y2="20.14" style="fill:none; stroke:#ededed; stroke-miterlimit:10; stroke-width:.07px;"/><line x1="-2.76" y1="21.56" x2="34.59" y2="21.56" style="fill:none; stroke:#ededed; stroke-miterlimit:10; stroke-width:.07px;"/><line x1="-2.76" y1="22.99" x2="34.59" y2="22.99" style="fill:none; stroke:#ededed; stroke-miterlimit:10; stroke-width:.07px;"/><line x1="-2.76" y1="24.42" x2="34.59" y2="24.42" style="fill:none; stroke:#ededed; stroke-miterlimit:10; stroke-width:.07px;"/><line x1="-2.76" y1="25.85" x2="34.59" y2="25.85" style="fill:none; stroke:#ededed; stroke-miterlimit:10; stroke-width:.07px;"/><line x1="-2.76" y1="27.27" x2="34.59" y2="27.27" style="fill:none; stroke:#ededed; stroke-miterlimit:10; stroke-width:.07px;"/><line x1="-2.76" y1="28.7" x2="34.59" y2="28.7" style="fill:none; stroke:#ededed; stroke-miterlimit:10; stroke-width:.07px;"/><line x1="-2.76" y1="30.13" x2="34.59" y2="30.13" style="fill:none; stroke:#ededed; stroke-miterlimit:10; stroke-width:.07px;"/><line x1="-2.76" y1="31.56" x2="34.59" y2="31.56" style="fill:none; stroke:#ededed; stroke-miterlimit:10; stroke-width:.07px;"/><line x1=".09" y1="-2.7" x2=".09" y2="34.65" style="fill:none; stroke:#ededed; stroke-miterlimit:10; stroke-width:.07px;"/><line x1="1.52" y1="-2.7" x2="1.52" y2="34.65" style="fill:none; stroke:#ededed; stroke-miterlimit:10; stroke-width:.07px;"/><line x1="2.95" y1="-2.7" x2="2.95" y2="34.65" style="fill:none; stroke:#ededed; stroke-miterlimit:10; stroke-width:.07px;"/><line x1="4.37" y1="-2.7" x2="4.37" y2="34.65" style="fill:none; stroke:#ededed; stroke-miterlimit:10; stroke-width:.07px;"/><line x1="5.8" y1="-2.7" x2="5.8" y2="34.65" style="fill:none; stroke:#ededed; stroke-miterlimit:10; stroke-width:.07px;"/><line x1="7.23" y1="-2.7" x2="7.23" y2="34.65" style="fill:none; stroke:#ededed; stroke-miterlimit:10; stroke-width:.07px;"/><line x1="8.66" y1="-2.7" x2="8.66" y2="34.65" style="fill:none; stroke:#ededed; stroke-miterlimit:10; stroke-width:.07px;"/><line x1="10.08" y1="-2.7" x2="10.08" y2="34.65" style="fill:none; stroke:#ededed; stroke-miterlimit:10; stroke-width:.07px;"/><line x1="11.51" y1="-2.7" x2="11.51" y2="34.65" style="fill:none; stroke:#ededed; stroke-miterlimit:10; stroke-width:.07px;"/><line x1="12.94" y1="-2.7" x2="12.94" y2="34.65" style="fill:none; stroke:#ededed; stroke-miterlimit:10; stroke-width:.07px;"/><line x1="14.37" y1="-2.7" x2="14.37" y2="34.65" style="fill:none; stroke:#ededed; stroke-miterlimit:10; stroke-width:.07px;"/><line x1="15.79" y1="-2.7" x2="15.79" y2="34.65" style="fill:none; stroke:#ededed; stroke-miterlimit:10; stroke-width:.07px;"/><line x1="17.22" y1="-2.7" x2="17.22" y2="34.65" style="fill:none; stroke:#ededed; stroke-miterlimit:10; stroke-width:.07px;"/><line x1="18.65" y1="-2.7" x2="18.65" y2="34.65" style="fill:none; stroke:#ededed; stroke-miterlimit:10; stroke-width:.07px;"/><line x1="20.07" y1="-2.7" x2="20.07" y2="34.65" style="fill:none; stroke:#ededed; stroke-miterlimit:10; stroke-width:.07px;"/><line x1="21.5" y1="-2.7" x2="21.5" y2="34.65" style="fill:none; stroke:#ededed; stroke-miterlimit:10; stroke-width:.07px;"/><line x1="22.93" y1="-2.7" x2="22.93" y2="34.65" style="fill:none; stroke:#ededed; stroke-miterlimit:10; stroke-width:.07px;"/><line x1="24.36" y1="-2.7" x2="24.36" y2="34.65" style="fill:none; stroke:#ededed; stroke-miterlimit:10; stroke-width:.07px;"/><line x1="25.78" y1="-2.7" x2="25.78" y2="34.65" style="fill:none; stroke:#ededed; stroke-miterlimit:10; stroke-width:.07px;"/><line x1="27.21" y1="-2.7" x2="27.21" y2="34.65" style="fill:none; stroke:#ededed; stroke-miterlimit:10; stroke-width:.07px;"/><line x1="28.64" y1="-2.7" x2="28.64" y2="34.65" style="fill:none; stroke:#ededed; stroke-miterlimit:10; stroke-width:.07px;"/><line x1="30.07" y1="-2.7" x2="30.07" y2="34.65" style="fill:none; stroke:#ededed; stroke-miterlimit:10; stroke-width:.07px;"/><line x1="31.49" y1="-2.7" x2="31.49" y2="34.65" style="fill:none; stroke:#ededed; stroke-miterlimit:10; stroke-width:.07px;"/></g><path d="M22.58,23.55h0c.21.21.19.55-.04.74-1.82,1.45-4.12,2.32-6.62,2.32-5.89,0-10.63-4.74-10.63-10.63,0-2.5.87-4.81,2.32-6.62.18-.23.53-.25.74-.04h0s14.24,14.24,14.24,14.24Z" style="fill:none; stroke:#ededed; stroke-miterlimit:10; stroke-width:.22px;"/><path d="M26.55,15.98c0,2.5-.87,4.81-2.32,6.62-.18.23-.53.25-.74.04h0s-14.24-14.24-14.24-14.24h0c-.21-.21-.19-.55.04-.74,1.82-1.45,4.12-2.32,6.62-2.32,5.89,0,10.63,4.74,10.63,10.63Z" style="fill:none; stroke:#ededed; stroke-miterlimit:10; stroke-width:.22px;"/><rect x="6.16" y="5.01" width=".89" height="3.32" rx=".12" ry=".12" transform="translate(-2.78 6.62) rotate(-45)" style="fill:#ededed;"/><rect x="24.79" y="23.64" width=".89" height="3.32" rx=".12" ry=".12" transform="translate(-10.5 25.26) rotate(-45)" style="fill:#ededed;"/><rect x="3.04" y="3.11" width=".89" height=".89" rx=".07" ry=".07" transform="translate(-1.49 3.51) rotate(-45)" style="fill:#ededed;"/><rect x="28" y="28.07" width=".89" height=".89" rx=".07" ry=".07" transform="translate(-11.83 28.46) rotate(-45)" style="fill:#ededed;"/></g></svg>